<?xml version="1.0" encoding="UTF-8" standalone="no"?>
<svg
   xmlns:dc="http://purl.org/dc/elements/1.1/"
   xmlns:cc="http://creativecommons.org/ns#"
   xmlns:rdf="http://www.w3.org/1999/02/22-rdf-syntax-ns#"
   xmlns:svg="http://www.w3.org/2000/svg"
   xmlns="http://www.w3.org/2000/svg"
   xmlns:sodipodi="http://sodipodi.sourceforge.net/DTD/sodipodi-0.dtd"
   xmlns:inkscape="http://www.inkscape.org/namespaces/inkscape"
   width="1984.7131"
   height="387.86594"
   viewBox="0 0 1587.7705 310.29275"
   version="1.1"
   id="svg2"
   inkscape:version="0.48.2 r9819"
   sodipodi:docname="Megatone.svg">
  <metadata
     id="metadata41">
    <rdf:RDF>
      <cc:Work
         rdf:about="">
        <dc:format>image/svg+xml</dc:format>
        <dc:type
           rdf:resource="http://purl.org/dc/dcmitype/StillImage" />
      </cc:Work>
    </rdf:RDF>
  </metadata>
  <defs
     id="defs39" />
  <sodipodi:namedview
     pagecolor="#ffffff"
     bordercolor="#666666"
     borderopacity="1"
     objecttolerance="10"
     gridtolerance="10"
     guidetolerance="10"
     inkscape:pageopacity="0"
     inkscape:pageshadow="2"
     inkscape:window-width="1024"
     inkscape:window-height="547"
     id="namedview37"
     showgrid="false"
     fit-margin-left="20"
     fit-margin-top="20"
     fit-margin-right="20"
     fit-margin-bottom="20"
     inkscape:zoom="0.29106293"
     inkscape:cx="997.70592"
     inkscape:cy="135.00645"
     inkscape:window-x="-8"
     inkscape:window-y="22"
     inkscape:window-maximized="1"
     inkscape:current-layer="svg2" />
  <g
     id="#ffffffff"
     transform="translate(-151.61476,-130.35363)">
    <path
       d="m 1717.32,200.43 c 7.49,-2.92 15.97,4.93 13.58,12.62 -1.48,7.48 -11.84,10.66 -17.24,5.28 -6.1,-4.91 -3.82,-15.72 3.66,-17.9 m -1.05,2.96 c 0.04,4.69 -0.25,9.39 0.16,14.06 3.27,0.86 1.31,-4.41 1.85,-6.29 0.97,0.09 1.97,0.18 2.98,0.28 0.92,1.94 1.82,3.89 2.69,5.85 0.54,0.12 1.6,0.36 2.13,0.49 -0.72,-2.6 -1.92,-5.01 -3.35,-7.27 2.28,-0.93 3.4,-4.01 1.56,-5.9 -2.3,-1.71 -5.38,-1.07 -8.02,-1.22 z"
       id="path5"
       inkscape:connector-curvature="0"
       style="fill:#ffffff" />
    <path
       d="m 1718.22,205.05 c 1.57,0.28 4.6,-0.34 4.75,2.01 0.45,2.59 -3.04,2.26 -4.67,2.58 -0.05,-1.54 -0.09,-3.06 -0.08,-4.59 z"
       id="path7"
       inkscape:connector-curvature="0"
       style="fill:#ffffff" />
    <path
       d="m 1081.29,250.1 c 1.74,-0.18 3.43,0.87 3.74,2.66 3.48,10.35 6.74,20.78 10.25,31.12 0.57,1.77 1.28,3.81 0.17,5.54 -1.53,1.95 -4.29,1.47 -6.45,1.62 -6.04,-0.11 -12.08,0.14 -18.11,-0.12 -2.83,-0.05 -4.62,-3.32 -3.44,-5.82 3.4,-10.34 6.82,-20.67 10.31,-30.97 0.64,-1.65 1.33,-4.09 3.53,-4.03 z"
       id="path9"
       inkscape:connector-curvature="0"
       style="fill:#ffffff" />
  </g>
  <g
     id="#e31e25ff"
     transform="translate(-141.88953,-130.09141)">
    <path
       d="m 170.02,159.17 c 59.86,-11.39 121.08,-15.07 181.9,-12.09 33.58,1.73 67.07,5.65 100.09,12.02 8.44,1.4 14.32,11.04 11.22,19.16 -15.18,42.65 -34.38,83.87 -57.02,123.07 -2.52,4.65 -5.64,8.96 -7.8,13.81 0.15,-3.15 0.74,-6.25 1.36,-9.34 6.67,-35.84 13.68,-71.62 20.21,-107.49 -25.72,-0.07 -51.46,-0.24 -77.18,0.09 -12.17,23.03 -24.19,46.15 -36.39,69.17 -0.92,2.36 -3.37,3.12 -5.7,2.93 -1.64,-4.96 -2.02,-10.2 -2.9,-15.32 -3.12,-18.96 -5.97,-37.98 -9.18,-56.93 -25.58,0 -51.15,-0.09 -76.72,0.05 -4.43,23.78 -8.76,47.58 -13.55,71.29 -14.93,-29.36 -28.32,-59.53 -39.39,-90.57 -3.61,-8.23 2.27,-18.47 11.05,-19.85 z"
       id="path12"
       inkscape:connector-curvature="0"
       style="fill:#e31e25" />
    <path
       d="m 247.71,252.38 c 1.2,-0.04 2.41,-0.05 3.63,-0.02 0.41,1.52 0.84,3.04 1.08,4.6 4.28,28.4 8.58,56.79 12.96,85.17 0.04,3.16 2.61,5.52 5.72,5.53 7.96,0.2 15.94,-0.01 23.91,0.06 3.6,0.26 7.18,-1.7 8.95,-4.82 13.37,-25.65 26.64,-51.35 40.09,-76.96 2.16,-4.22 4.21,-8.5 6.77,-12.49 1.21,0.05 2.42,0.08 3.64,0.1 -0.12,1.4 -0.22,2.81 -0.43,4.2 -5.68,29.99 -11.49,59.96 -17.03,89.98 13.35,-0.04 26.7,-0.08 40.05,-0.13 -16.56,24.82 -34.89,48.46 -54.36,71.06 -3.62,4.69 -10.14,6.91 -15.82,5.09 -3.3,-0.79 -5.98,-3.03 -8.07,-5.6 -24.23,-28.1 -46.35,-57.98 -66.32,-89.25 4.21,-21.63 8.38,-43.28 12.6,-64.92 0.74,-3.9 1.3,-7.85 2.63,-11.6 z"
       id="path14"
       inkscape:connector-curvature="0"
       style="fill:#e31e25" />
  </g>
  <g
     id="#2a2a28ff"
     transform="translate(-141.88953,-130.09141)">
    <path
       d="m 870.68,217.67 c 12.92,-14.05 31.52,-22.06 50.36,-23.82 17.46,-1.78 35.97,0.59 51.1,9.97 12.05,7.28 21.24,18.68 26.97,31.44 -12.31,5.07 -24.6,10.22 -36.86,15.42 -2.77,-6.96 -7.02,-13.55 -13.25,-17.88 -9.57,-6.91 -22.8,-7.67 -33.51,-3.06 -8.43,3.7 -14.9,10.92 -18.9,19.09 -7.34,15.24 -7.67,33.78 -0.51,49.15 3.63,7.8 9.48,14.76 17.17,18.8 9.3,5.03 20.62,5.18 30.59,2.17 9.4,-2.79 17.77,-9.91 20.72,-19.43 0.59,-1.85 -0.64,-4.27 -2.71,-4.4 -7.26,-0.49 -14.54,0.12 -21.79,-0.27 -2.89,-0.11 -4.07,-3.26 -3.89,-5.74 0.07,-7.01 -0.16,-14.04 0.1,-21.05 0.02,-2.44 2.43,-3.87 4.67,-3.67 21.17,-0.07 42.33,0.02 63.5,-0.03 0.97,15.74 0.36,32.16 -6.29,46.74 -7.58,16.45 -21.38,30.25 -38.42,36.72 -15.82,5.95 -33.35,6.36 -49.79,2.98 -18.95,-4.05 -36.57,-15.26 -47.04,-31.75 -9.7,-15 -13.4,-33.29 -12.33,-50.98 0.9,-18.36 7.44,-36.84 20.11,-50.4 z"
       id="path17"
       inkscape:connector-curvature="0"
       style="fill:#2a2a28" />
    <path
       d="m 1331.47,194.76 c 20.41,-3.7 42.1,0.14 59.95,10.73 15.22,8.9 27.68,22.86 33.73,39.52 5.96,15.96 5.63,33.75 1.25,50.06 -4.74,17.58 -15.72,33.51 -30.88,43.68 -16.96,11.67 -38.33,15.83 -58.63,13.73 -17.79,-1.7 -35.21,-9.01 -48.2,-21.42 -11.59,-10.85 -19.34,-25.51 -22.61,-40.99 -3.96,-18.32 -2.42,-38.29 6.9,-54.8 11.84,-21.64 34.4,-36.31 58.49,-40.51 m 7.13,37.13 c -16,3.02 -30.02,15.87 -33.34,31.97 -3.04,17.13 4.67,36.09 19.75,45.18 13.91,8.92 33.24,8.19 46.42,-1.8 17.18,-12.44 23.67,-39.09 11.28,-56.99 -9.32,-14.18 -27.46,-21.87 -44.11,-18.36 z"
       id="path19"
       inkscape:connector-curvature="0"
       style="fill:#2a2a28" />
    <path
       d="m 555.58,198.38 c 14.04,0 28.08,-0.1 42.13,0.05 8.65,24.19 17.56,48.29 26.35,72.43 0.39,2.08 2.36,2.44 4.17,2.61 0.81,-1.3 1.6,-2.62 2.16,-4.04 9.05,-23.69 18.23,-47.32 27.23,-71.02 14.19,-0.07 28.38,-0.1 42.57,0 5.76,49.87 11.72,99.71 17.64,149.55 -12.99,0.23 -25.99,0.02 -38.98,0.1 -2.51,-25.66 -4.86,-51.35 -7.5,-77 -0.17,-2.79 -4.34,-2.34 -4.84,0.09 -10.31,24.21 -20.45,48.5 -30.67,72.75 -0.76,1.72 -1.88,3.6 -3.88,3.98 -3.65,0.32 -7.34,0.28 -10.98,0.02 -2.14,-0.17 -3.28,-2.33 -4.08,-4.05 -9.24,-23.32 -18.54,-46.63 -27.75,-69.98 -0.89,-1.77 -1.15,-4.23 -3.17,-5.11 -1.87,-0.67 -3.29,1.25 -3.22,2.94 -2.97,25.46 -5.96,50.92 -8.95,76.37 -12.9,-0.04 -25.8,0.02 -38.7,-0.05 6.87,-49.87 13.66,-99.76 20.47,-149.64 z"
       id="path21"
       inkscape:connector-curvature="0"
       style="fill:#2a2a28" />
    <path
       d="m 737.65,198.4 c 30.85,-0.04 61.71,-0.13 92.56,0.05 -0.11,10.96 -0.02,21.93 -0.04,32.9 -16.06,-0.06 -32.12,0.03 -48.18,-0.04 -1.98,0.01 -5.07,-0.04 -5.3,2.61 -0.4,5.69 -0.02,11.41 -0.18,17.12 -0.15,2.15 0.24,4.29 1.2,6.23 16.28,0.6 32.58,0.13 48.87,0.25 0,10.15 0,20.31 0.02,30.46 -15.57,0.15 -31.14,-0.09 -46.7,0.12 -2.58,-0.11 -3.58,2.73 -3.37,4.87 0.07,6.35 -0.16,12.71 0.12,19.05 0.18,2.23 2.23,3.25 4.28,3.03 16.4,0.09 32.81,-0.01 49.22,0.04 0.04,10.99 -0.01,21.98 0.01,32.98 -30.84,-0.03 -61.67,-0.01 -92.51,-0.01 0.01,-49.89 0.01,-99.77 0,-149.66 z"
       id="path23"
       inkscape:connector-curvature="0"
       style="fill:#2a2a28" />
    <path
       d="m 1060.48,198.38 c 14.21,0.01 28.43,-0.12 42.65,0.06 18.66,49.93 37.54,99.77 56.29,149.67 -13.83,-0.25 -27.67,0.24 -41.48,-0.25 -3.21,-7.88 -5.98,-15.94 -9.05,-23.87 -0.32,-1.86 -2.39,-1.96 -3.87,-1.92 -15.01,-0.02 -30.02,0.03 -45.03,-0.02 -1.83,-0.01 -3.64,0.17 -5.43,0.41 -3.49,8.44 -6.92,16.91 -10.14,25.46 -13.8,0.3 -27.61,0.07 -41.41,0.11 19.09,-49.91 38.4,-99.74 57.47,-149.65 m 20.81,51.72 c -2.2,-0.06 -2.89,2.38 -3.53,4.03 -3.49,10.3 -6.91,20.63 -10.31,30.97 -1.18,2.5 0.61,5.77 3.44,5.82 6.03,0.26 12.07,0.01 18.11,0.12 2.16,-0.15 4.92,0.33 6.45,-1.62 1.11,-1.73 0.4,-3.77 -0.17,-5.54 -3.51,-10.34 -6.77,-20.77 -10.25,-31.12 -0.31,-1.79 -2,-2.84 -3.74,-2.66 z"
       id="path25"
       inkscape:connector-curvature="0"
       style="fill:#2a2a28" />
    <path
       d="m 1146.93,198.38 c 36.06,-0.01 72.12,-0.08 108.18,0.04 -0.1,10.98 -0.06,21.96 -0.02,32.94 -10.23,0.03 -20.46,-0.17 -30.67,0.08 -2.89,-0.08 -4.18,3.07 -3.97,5.54 0.01,37.03 -0.03,74.05 0.02,111.08 -12.97,0.01 -25.94,-0.06 -38.91,0.05 -0.06,-37.04 0.04,-74.08 -0.05,-111.11 0.39,-2.8 -1.6,-5.78 -4.62,-5.6 -10,-0.15 -20.01,-0.04 -30.01,-0.05 0.05,-10.99 -0.05,-21.98 0.05,-32.97 z"
       id="path27"
       inkscape:connector-curvature="0"
       style="fill:#2a2a28" />
    <path
       d="m 1447.75,198.44 c 12.98,-0.15 25.97,-0.09 38.95,-0.02 18.48,26.8 37.08,53.53 55.55,80.34 1.09,1.61 2.43,3.58 4.71,3.2 1.69,-0.5 1.47,-2.59 1.55,-3.96 -0.04,-26.54 0.01,-53.09 -0.03,-79.63 12.97,-0.02 25.94,0 38.92,-0.01 0,49.9 -0.01,99.81 0,149.71 -13.02,-0.11 -26.05,0.15 -39.07,-0.13 -18.71,-27.41 -37.65,-54.66 -56.45,-82 -0.73,-1.5 -2.3,-1.76 -3.77,-1.92 -0.35,0.46 -1.04,1.38 -1.39,1.84 -0.18,27.4 0.02,54.8 -0.1,82.19 -12.94,0.01 -25.87,-0.01 -38.81,0.01 -0.12,-49.87 0.02,-99.75 -0.06,-149.62 z"
       id="path29"
       inkscape:connector-curvature="0"
       style="fill:#2a2a28" />
    <path
       d="m 1609.47,198.38 c 30.84,-0.03 61.69,-0.05 92.54,0.02 -0.1,10.99 0.16,21.98 -0.12,32.97 -15.31,-0.1 -30.63,0.02 -45.94,-0.06 -2.14,-0.02 -4.25,0.12 -6.35,0.34 -1.73,2.81 -1.17,6.18 -1.23,9.31 0.04,5.08 -0.15,10.17 0.22,15.24 1.35,0.71 2.78,1.47 4.4,1.33 15.14,0 30.28,0.04 45.42,-0.02 0.03,10.16 0.01,20.33 0.01,30.5 -15.51,0.07 -31.02,-0.08 -46.52,0.08 -2.24,-0.14 -3.63,2 -3.49,4.03 -0.05,6.58 -0.15,13.16 0.05,19.73 -0.03,2.37 2.45,3.41 4.52,3.21 16.35,0.07 32.7,-0.02 49.06,0.04 -0.15,10.98 0.03,21.97 -0.07,32.96 -30.85,-0.08 -61.71,0.14 -92.56,-0.12 0.12,-49.85 0.01,-99.7 0.06,-149.56 z"
       id="path31"
       inkscape:connector-curvature="0"
       style="fill:#2a2a28" />
    <path
       d="m 1713.66,218.33 c -1142.44,235.11333 -571.22,117.55667 0,0 z"
       id="path33"
       inkscape:connector-curvature="0"
       style="fill:#2a2a28"
       sodipodi:nodetypes="cc" />
  </g>
</svg>
